# xmcd CD database file
#
# Track frame offsets:
#	167
#	16005
#	36527
#	58580
#	79185
#	102570
#	127400
#	144457
#	178650
#	203565
#
# Disc length: 2814 seconds
#
# Revision: 0
# Processed by: cddbd v1.5.1PL2 Copyright (c) Steve Scherf et al.
# Submitted via: CDex 1.51
#
DISCID=8e0afc0a
DTITLE=The blue flame - It ain't what it used to be
DYEAR=2002
DGENRE=Blues
TTITLE0=It ain't what it used to be
TTITLE1=Goin' down
TTITLE2=Depression blues
TTITLE3=Out of the dark
TTITLE4=Elmore Johnson blues
TTITLE5=Bad day at the bluesman's home
TTITLE6=Slo' motion
TTITLE7=Wind of changes
TTITLE8=Dancing lady
TTITLE9=Mister shuffle
EXTD=YEAR: 2002
EXTT0=
EXTT1=
EXTT2=
EXTT3=
EXTT4=
EXTT5=
EXTT6=
EXTT7=
EXTT8=
EXTT9=
PLAYORDER=
